<svg width="115" height="115" viewBox="0 0 115 115" fill="none" xmlns="http://www.w3.org/2000/svg">
<g clip-path="url(#clip0)">
<path d="M101.683 35.4742L71.6436 32.6881L59.7109 4.9796C58.8754 3.03942 56.1246 3.03942 55.2893 4.9796L43.3567 32.6879L13.3171 35.4742C11.2136 35.6692 10.3637 38.2854 11.9506 39.6796L34.6155 59.5903L27.9826 89.0207C27.5181 91.0815 29.7437 92.6983 31.5599 91.6199L57.5001 76.2171L83.4403 91.6199C85.2567 92.6985 87.4819 91.0815 87.0177 89.0207L80.3845 59.5903L103.05 39.6796C104.637 38.2854 103.786 35.6692 101.683 35.4742Z" fill="#FFDC64" fill-opacity="0.37"/>
<path d="M26.7908 4.02569C28.3221 6.15275 32.6445 15.2876 35.1157 20.6113C35.5043 21.4482 34.4542 22.2043 33.7838 21.5702C29.5191 17.538 22.2271 10.541 20.6957 8.41367C19.484 6.73067 19.866 4.38395 21.5493 3.17218C23.2323 1.96041 25.579 2.34269 26.7908 4.02569Z" fill="#FFF082" fill-opacity="0.58"/>
<path d="M88.2091 4.02569C86.6777 6.15275 82.3553 15.2876 79.8842 20.6113C79.4956 21.4482 80.5457 22.2043 81.2161 21.5702C85.4808 17.538 92.7725 10.5407 94.3041 8.41367C95.5159 6.73067 95.1338 4.38395 93.4506 3.17218C91.7676 1.96041 89.4209 2.34269 88.2091 4.02569Z" fill="#FFF082" fill-opacity="0.58"/>
<path d="M112.408 66.4012C109.916 65.5886 99.9 64.2461 94.0774 63.5093C93.1621 63.3935 92.761 64.6236 93.5684 65.0697C98.7059 67.9077 107.588 72.7287 110.08 73.5413C112.051 74.1844 114.171 73.1074 114.814 71.1355C115.457 69.1637 114.38 67.0443 112.408 66.4012Z" fill="#FFF082" fill-opacity="0.58"/>
<path d="M2.59167 66.4012C5.08349 65.5886 15.1 64.2461 20.9225 63.5093C21.8378 63.3935 22.239 64.6236 21.4315 65.0697C16.294 67.9077 7.41225 72.7287 4.92043 73.5413C2.9488 74.1844 0.829158 73.1074 0.1861 71.1355C-0.456958 69.1637 0.620046 67.0443 2.59167 66.4012Z" fill="#FFF082" fill-opacity="0.58"/>
<path d="M53.8601 108.781C53.8601 106.16 55.6896 96.2208 56.7946 90.4567C56.9683 89.5506 58.2622 89.5506 58.4359 90.4567C59.5409 96.2208 61.3704 106.16 61.3704 108.781C61.3704 110.855 59.6892 112.536 57.6154 112.536C55.5413 112.536 53.8601 110.855 53.8601 108.781Z" fill="#FFF082" fill-opacity="0.58"/>
<path d="M64.0499 15.0556L59.7107 4.9796C58.8751 3.03942 56.1244 3.03942 55.289 4.9796L43.3564 32.6879L13.3171 35.4742C11.2136 35.6692 10.3637 38.2854 11.9506 39.6796L34.6155 59.5903L27.9825 89.0207C27.5181 91.0815 29.7437 92.6983 31.5599 91.6199L35.0124 89.5699C40.6723 52.9315 56.5841 26.0363 64.0499 15.0556Z" fill="#FFC850" fill-opacity="0.25"/>
</g>
<defs>
<clipPath id="clip0">
<rect width="115" height="115" fill="white"/>
</clipPath>
</defs>
</svg>
